<svg width="20" height="20" viewBox="0 0 20 20" fill="none" xmlns="http://www.w3.org/2000/svg">
<path d="M12.9852 10.0014C12.9852 11.6514 11.6519 12.9848 10.0019 12.9848C8.35189 12.9848 7.01855 11.6514 7.01855 10.0014C7.01855 8.3514 8.35189 7.01807 10.0019 7.01807C11.6519 7.01807 12.9852 8.3514 12.9852 10.0014Z" stroke="#3F4254" stroke-width="1.5" stroke-linecap="round" stroke-linejoin="round"/>
<path d="M9.99987 16.8908C12.9415 16.8908 15.6832 15.1575 17.5915 12.1575C18.3415 10.9825 18.3415 9.00745 17.5915 7.83245C15.6832 4.83245 12.9415 3.09912 9.99987 3.09912C7.0582 3.09912 4.31654 4.83245 2.4082 7.83245C1.6582 9.00745 1.6582 10.9825 2.4082 12.1575C4.31654 15.1575 7.0582 16.8908 9.99987 16.8908Z" stroke="#3F4254" stroke-width="1.5" stroke-linecap="round" stroke-linejoin="round"/>
</svg>
