<svg xmlns="http://www.w3.org/2000/svg" width="42.251" height="42.251" viewBox="0 0 42.251 42.251">
  <g id="Group_12312" data-name="Group 12312" transform="translate(-3.286 -3.286)">
    <rect id="Rectangle_500" data-name="Rectangle 500" width="42.251" height="42.251" rx="21.125" transform="translate(3.286 3.286)" fill="#f5f5f5"/>
    <path id="Path_31644" data-name="Path 31644" d="M35.9,26.6a7.894,7.894,0,0,0-.2-1.92h-9v3.484h5.28a4.575,4.575,0,0,1-1.959,3.046l-.018.117,2.844,2.159.2.019A9.088,9.088,0,0,0,35.9,26.6Z" transform="translate(-2.101 -1.977)" fill="#2684fc"/>
    <path id="Path_31645" data-name="Path 31645" d="M26.148,36.01a9.241,9.241,0,0,0,6.345-2.274l-3.023-2.3A5.925,5.925,0,0,1,20.7,28.478l-.112.009L17.628,30.73l-.039.105A9.6,9.6,0,0,0,26.148,36.01Z" transform="translate(-1.544 -2.209)" fill="#00ac47"/>
    <path id="Path_31646" data-name="Path 31646" d="M20.63,28.08a5.677,5.677,0,0,1-.319-1.857,5.963,5.963,0,0,1,.309-1.857l-.005-.124L17.62,21.962l-.1.046a9.2,9.2,0,0,0,0,8.429Z" transform="translate(-1.477 -1.811)" fill="#ffba00"/>
    <path id="Path_31647" data-name="Path 31647" d="M26.148,20.13a5.367,5.367,0,0,1,3.7,1.4l2.7-2.587A9.308,9.308,0,0,0,26.148,16.5a9.6,9.6,0,0,0-8.559,5.174l3.1,2.358A5.781,5.781,0,0,1,26.148,20.13Z" transform="translate(-1.544 -1.477)" fill="#ea4335"/>
  </g>
</svg>
